<svg width="34" height="34" viewBox="0 0 34 34" fill="none" xmlns="http://www.w3.org/2000/svg">
<path d="M17.0074 8.46465C12.2871 8.46465 8.47964 12.2721 8.47964 16.9924C8.47964 21.7127 12.2871 25.5201 17.0074 25.5201C21.7277 25.5201 25.5351 21.7127 25.5351 16.9924C25.5351 12.2721 21.7277 8.46465 17.0074 8.46465ZM17.0074 22.5365C13.957 22.5365 11.4632 20.0502 11.4632 16.9924C11.4632 13.9346 13.9496 11.4482 17.0074 11.4482C20.0652 11.4482 22.5515 13.9346 22.5515 16.9924C22.5515 20.0502 20.0578 22.5365 17.0074 22.5365ZM27.873 8.11582C27.873 9.22168 26.9824 10.1049 25.8839 10.1049C24.7781 10.1049 23.8949 9.21426 23.8949 8.11582C23.8949 7.01738 24.7855 6.12676 25.8839 6.12676C26.9824 6.12676 27.873 7.01738 27.873 8.11582ZM33.521 10.1346C33.3949 7.47012 32.7863 5.10996 30.8343 3.16543C28.8898 1.2209 26.5296 0.612305 23.8652 0.478711C21.1191 0.322852 12.8882 0.322852 10.1421 0.478711C7.48511 0.604883 5.12495 1.21348 3.173 3.15801C1.22105 5.10254 0.619873 7.4627 0.486279 10.1271C0.33042 12.8732 0.33042 21.1041 0.486279 23.8502C0.612451 26.5146 1.22105 28.8748 3.173 30.8193C5.12495 32.7639 7.47769 33.3725 10.1421 33.5061C12.8882 33.6619 21.1191 33.6619 23.8652 33.5061C26.5296 33.3799 28.8898 32.7713 30.8343 30.8193C32.7789 28.8748 33.3875 26.5146 33.521 23.8502C33.6769 21.1041 33.6769 12.8807 33.521 10.1346ZM29.9734 26.7967C29.3945 28.2514 28.2738 29.3721 26.8117 29.9584C24.6222 30.8268 19.4269 30.6264 17.0074 30.6264C14.5878 30.6264 9.38511 30.8193 7.20308 29.9584C5.74839 29.3795 4.62769 28.2588 4.04136 26.7967C3.173 24.6072 3.37339 19.4119 3.37339 16.9924C3.37339 14.5729 3.18042 9.37012 4.04136 7.18809C4.62026 5.7334 5.74097 4.6127 7.20308 4.02637C9.39253 3.15801 14.5878 3.3584 17.0074 3.3584C19.4269 3.3584 24.6296 3.16543 26.8117 4.02637C28.2664 4.60527 29.3871 5.72598 29.9734 7.18809C30.8417 9.37754 30.6414 14.5729 30.6414 16.9924C30.6414 19.4119 30.8417 24.6146 29.9734 26.7967Z" fill="#2E5E2D"/>
</svg>
