<svg width="25" height="25" viewBox="0 0 25 25" fill="none" xmlns="http://www.w3.org/2000/svg">
<g clip-path="url(#clip0_30_133)">
<path d="M22.5644 23.9511L22.5606 23.9549C22.5 24.0162 22.3939 24.0217 22.3233 23.9511L17.4552 19.0829C17.4255 19.0533 17.4062 19.0109 17.4062 18.96V18.1641V17.4062H18.1641H18.96C19.0109 17.4062 19.0533 17.4255 19.0829 17.4552L23.9473 22.3195C23.9477 22.3199 23.948 22.3203 23.9484 22.3206C24.0153 22.3894 24.0149 22.5005 23.9462 22.5693L22.5644 23.9511ZM17.3763 15.7903L16.6804 16.6804L15.7903 17.3763C14.2367 18.591 12.2841 19.3125 10.1562 19.3125C5.09818 19.3125 1 15.2143 1 10.1562C1 5.09818 5.09818 1 10.1562 1C15.2143 1 19.3125 5.09818 19.3125 10.1562C19.3125 12.2841 18.591 14.2367 17.3763 15.7903Z" stroke="white" stroke-width="2"/>
</g>
<defs>
<clipPath id="clip0_30_133">
<rect width="25" height="25" fill="white"/>
</clipPath>
</defs>
</svg>
