<svg width="25" height="25" viewBox="0 0 25 25" fill="none" xmlns="http://www.w3.org/2000/svg">
<g clip-path="url(#clip0_30_131)">
<path d="M18.5312 7.03125C18.5312 10.3608 15.8296 13.0625 12.5 13.0625C9.17045 13.0625 6.46875 10.3608 6.46875 7.03125C6.46875 3.7017 9.17045 1 12.5 1C15.8296 1 18.5312 3.7017 18.5312 7.03125ZM12.5 17.4062C13.8399 17.4062 15.1161 17.1239 16.2721 16.625H18.75C21.6499 16.625 24 18.9751 24 21.875V22.6562C24 23.3979 23.3979 24 22.6562 24H2.34375C1.60209 24 1 23.3979 1 22.6562V21.875C1 18.9751 3.35014 16.625 6.25 16.625H8.72867C9.88708 17.1234 11.1588 17.4062 12.5 17.4062Z" stroke="white" stroke-width="2"/>
</g>
<defs>
<clipPath id="clip0_30_131">
<rect width="25" height="25" fill="white"/>
</clipPath>
</defs>
</svg>
