<svg width="25" height="25" viewBox="0 0 25 25" fill="none" xmlns="http://www.w3.org/2000/svg">
<path d="M21.9467 14.2454L21.9467 14.2454C21.9424 14.2643 21.9256 14.2778 21.9061 14.2778H9.18281H7.95758L8.2031 15.4782L8.48717 16.8671L8.65071 17.6667H9.46688H21.117C21.1272 17.6667 21.132 17.6686 21.1349 17.6701C21.139 17.6721 21.1445 17.676 21.1495 17.6824C21.1546 17.6887 21.1572 17.6948 21.1583 17.6994C21.159 17.7025 21.1599 17.7076 21.1576 17.7176L20.9924 18.4445H19.1329H10.0337H8.01594L5.0545 3.9663L4.89094 3.16669H4.07478H1.04167C1.01865 3.16669 1 3.14805 1 3.12503V2.43058C1 2.40756 1.01865 2.38892 1.04167 2.38892H5.49171C5.51155 2.38892 5.52857 2.40288 5.53251 2.42216L5.53253 2.42222L5.93036 4.3671L6.09391 5.16669H6.91007H23.9579C23.9682 5.16669 23.9729 5.16864 23.9758 5.17008C23.98 5.17214 23.9854 5.17605 23.9904 5.18237C23.9955 5.18868 23.9981 5.19484 23.9992 5.19936C23.9999 5.20251 24.0008 5.2076 23.9985 5.2176L21.9467 14.2454ZM19.8327 20.1588L20.8233 19.1884L20.7421 19.5457L21.4566 19.8925C21.9366 20.1255 22.2639 20.6158 22.2639 21.1806C22.2639 21.9707 21.6234 22.6111 20.8333 22.6111C20.0433 22.6111 19.4028 21.9707 19.4028 21.1806C19.4028 20.7805 19.5661 20.42 19.8327 20.1588ZM8.24814 19.5797L8.12422 18.9739L9.33391 20.1588C9.60058 20.4201 9.76389 20.7805 9.76389 21.1806C9.76389 21.9707 9.12341 22.6111 8.33333 22.6111C7.54326 22.6111 6.90278 21.9707 6.90278 21.1806C6.90278 20.6516 7.18985 20.1883 7.62227 19.9396L8.24814 19.5797Z" stroke="white" stroke-width="2"/>
</svg>
